<svg xmlns="http://www.w3.org/2000/svg" viewBox="0 0 512 512" role="img" aria-label="Amiyo-Go">
  <defs>
    <linearGradient id="bg" x1="88" y1="56" x2="424" y2="456" gradientUnits="userSpaceOnUse">
      <stop offset="0" stop-color="#1e7098"/>
      <stop offset="0.58" stop-color="#17627f"/>
      <stop offset="1" stop-color="#0f9f7a"/>
    </linearGradient>
    <linearGradient id="shine" x1="152" y1="118" x2="394" y2="386" gradientUnits="userSpaceOnUse">
      <stop offset="0" stop-color="#ffffff" stop-opacity="0.32"/>
      <stop offset="1" stop-color="#ffffff" stop-opacity="0"/>
    </linearGradient>
    <filter id="shadow" x="88" y="104" width="336" height="332" color-interpolation-filters="sRGB" filterUnits="userSpaceOnUse">
      <feDropShadow dx="0" dy="18" stdDeviation="18" flood-color="#0f172a" flood-opacity="0.24"/>
    </filter>
  </defs>
  <rect width="512" height="512" rx="116" fill="url(#bg)"/>
  <circle cx="420" cy="96" r="92" fill="#f59e0b" opacity="0.18"/>
  <circle cx="104" cy="416" r="118" fill="#ffffff" opacity="0.09"/>
  <path d="M78 116C126 60 222 46 298 78c63 27 108 75 138 134 18 35 5 78-30 96-43 22-87-16-130-34-70-29-165 20-205-45-21-35-16-82 7-113Z" fill="url(#shine)"/>
  <g filter="url(#shadow)">
    <path d="M147 196c3-22 22-38 44-38h130c22 0 41 16 44 38l26 168c4 29-18 55-47 55H168c-29 0-51-26-47-55l26-168Z" fill="#ffffff"/>
    <path d="M197 197c0-38 25-72 59-72s59 34 59 72" fill="none" stroke="#ffffff" stroke-width="34" stroke-linecap="round"/>
    <path d="M199 198c0-36 23-66 57-66s57 30 57 66" fill="none" stroke="#1e7098" stroke-width="18" stroke-linecap="round"/>
    <path d="M256 212 176 365h45l13-31h44l13 31h45L278 212h-22Zm-8 86 8-20 8 20h-16Z" fill="#1e7098"/>
    <path d="M314 267h54l-17-17 20-20 52 52-52 52-20-20 17-17h-54v-30Z" fill="#f59e0b"/>
  </g>
</svg>
